<?xml version="1.0" encoding="UTF-8"?>
<svg width="700pt" height="700pt" version="1.1" viewBox="0 0 700 700" xmlns="http://www.w3.org/2000/svg">
 <g>
  <path d="m350 23.332c-20.789 0-41.504 2.5078-61.691 7.4688-8.0977 1.9961-14.512 8.1602-16.828 16.168-2.3203 8.0078-0.1875 16.645 5.5859 22.656 5.7773 6.0117 14.324 8.4844 22.418 6.4883 40.27-10.305 82.695-8.4414 121.91 5.3594 39.211 13.801 73.453 38.914 98.395 72.168s39.465 73.16 41.734 114.66c2.2695 41.508-7.8164 82.758-28.984 118.54-21.168 35.773-52.465 64.473-89.941 82.465-37.473 17.992-79.438 24.473-120.59 18.617-2.4492-0.32812-4.8516-0.69922-7.2578-1.1211v0.003907c-8.4805-1.3789-16.863-3.2891-25.105-5.7188-32.473-9.8008-62.09-27.309-86.332-51.027-0.65234-0.65234-1.375-1.2383-2.0078-1.8906-4.1055-4.1055-7.9805-8.4219-11.668-12.879-0.62891-0.72266-1.3086-1.4219-1.9375-2.1719-3.4062-4.1758-6.5781-8.5391-9.6836-12.973-0.86328-1.2148-1.7969-2.332-2.6367-3.6641-2.6367-3.9414-5.0391-8.0742-7.4219-12.203-1.1211-1.9375-2.332-3.8516-3.3594-5.832l0.003906-0.003906c-11.957-22.516-19.691-47.031-22.82-72.332-0.25781-2.0781-0.58203-4.1055-0.79297-6.1836-0.58203-6.5547-0.98047-13.184-0.98047-19.926-0.003906-16.02 1.8047-31.988 5.3906-47.602 1.3984-6.0273 0.34375-12.363-2.9297-17.613-3.2734-5.25-8.4961-8.9844-14.523-10.387-1.7305-0.39844-3.5-0.60156-5.2734-0.60547-5.2734 0-10.387 1.7852-14.516 5.0664-4.125 3.2773-7.0195 7.8594-8.2109 12.992-4.3984 19.07-6.6172 38.578-6.6055 58.148 0 8.1445 0.46484 16.332 1.2383 24.336 0.23438 2.543 0.65234 5.0391 0.95703 7.5586 0.48828 3.9648 0.83984 7.957 1.5156 11.852v0.003906c0.15234 0.49219 0.33203 0.97656 0.53516 1.4453 4.3633 24.234 12.223 47.703 23.336 69.676 0.23438 0.55859 0.21094 1.1445 0.48828 1.6797 0.62891 1.2383 1.4219 2.332 2.0781 3.6172 1.3984 2.6367 2.9414 5.1562 4.4336 7.7461 2.8008 4.8516 5.6484 9.707 8.7266 14.352 1.1445 1.6797 2.332 3.2891 3.5469 4.9453 3.7109 5.2734 7.4883 10.477 11.668 15.445 0.79297 0.98047 1.6562 1.8672 2.4727 2.8242 4.5508 5.3906 9.332 10.664 14.234 15.68 0.67578 0.65234 1.3984 1.2383 2.0781 1.8906 4.668 4.668 9.332 9.1016 14.281 13.324 0.28125 0.23438 0.65234 0.30469 0.93359 0.53516h-0.003907c25.965 21.766 55.992 38.168 88.34 48.254h0.1875c7.3047 2.332 14.723 4.0586 22.168 5.6484 1.9375 0.42188 3.8984 0.74609 5.832 1.0977 5.8555 1.1211 11.668 2.0078 17.641 2.707 2.332 0.25781 4.4102 0.53516 6.6484 0.74609 7.8164 0.69922 15.656 1.1914 23.543 1.1914v-0.003907c67.109-1.4609 130.98-29.148 177.91-77.137 46.938-47.984 73.207-112.45 73.18-179.57-0.027343-67.125-26.352-131.57-73.324-179.52-46.977-47.949-110.87-75.586-177.98-76.992z"/>
  <path d="m196.16 74.527c-20.566 15.414-38.707 33.816-53.832 54.598-4.8984 6.7461-5.832 15.594-2.4414 23.211 3.3906 7.6172 10.586 12.844 18.875 13.719 8.293 0.87109 16.418-2.7422 21.32-9.4883 12.391-17.016 27.246-32.09 44.078-44.73 4.9492-3.7109 8.2227-9.2383 9.0977-15.367 0.875-6.125-0.71875-12.348-4.4336-17.297-4.4062-5.8789-11.32-9.3359-18.664-9.3359-5.0547-0.003907-9.9688 1.6406-14 4.6914z"/>
  <path d="m350 163.33c-6.1875 0-12.125 2.4609-16.5 6.8359s-6.832 10.309-6.832 16.5v70h-70c-8.3359 0-16.039 4.4453-20.207 11.664-4.168 7.2188-4.168 16.117 0 23.336 4.168 7.2188 11.871 11.664 20.207 11.664h70v70c0 8.3359 4.4453 16.039 11.664 20.207 7.2188 4.168 16.117 4.168 23.336 0 7.2188-4.168 11.664-11.871 11.664-20.207v-70h70c8.3359 0 16.039-4.4453 20.207-11.664 4.168-7.2188 4.168-16.117 0-23.336-4.168-7.2188-11.871-11.664-20.207-11.664h-70v-70c0-6.1914-2.457-12.125-6.832-16.5s-10.312-6.8359-16.5-6.8359z"/>
 </g>
</svg>
